<mxfile host="app.diagrams.net" modified="2022-01-22T09:31:20.192Z" agent="5.0 (Macintosh; Intel Mac OS X 10_15_7) AppleWebKit/605.1.15 (KHTML, like Gecko) Version/13.1.3 Safari/605.1.15" etag="vkA7rsqxWfzoO1KEzB59" version="16.2.4" type="github">
  <diagram id="C5RBs43oDa-KdzZeNtuy" name="Page-1">
    <mxGraphModel dx="946" dy="588" grid="1" gridSize="10" guides="1" tooltips="1" connect="1" arrows="1" fold="1" page="1" pageScale="1" pageWidth="827" pageHeight="1169" math="0" shadow="0">
      <root>
        <mxCell id="WIyWlLk6GJQsqaUBKTNV-0" />
        <mxCell id="WIyWlLk6GJQsqaUBKTNV-1" parent="WIyWlLk6GJQsqaUBKTNV-0" />
        <mxCell id="sTN9fzjTIB2lLVRXi-as-0" style="edgeStyle=orthogonalEdgeStyle;rounded=0;orthogonalLoop=1;jettySize=auto;html=1;exitX=0.5;exitY=1;exitDx=0;exitDy=0;entryX=0.5;entryY=0;entryDx=0;entryDy=0;" edge="1" parent="WIyWlLk6GJQsqaUBKTNV-1" source="sTN9fzjTIB2lLVRXi-as-1" target="sTN9fzjTIB2lLVRXi-as-3">
          <mxGeometry relative="1" as="geometry" />
        </mxCell>
        <mxCell id="sTN9fzjTIB2lLVRXi-as-1" value="开始" style="rounded=1;whiteSpace=wrap;html=1;" vertex="1" parent="WIyWlLk6GJQsqaUBKTNV-1">
          <mxGeometry x="308.81" y="70" width="70" height="30" as="geometry" />
        </mxCell>
        <mxCell id="sTN9fzjTIB2lLVRXi-as-2" style="edgeStyle=orthogonalEdgeStyle;rounded=0;orthogonalLoop=1;jettySize=auto;html=1;exitX=0.5;exitY=1;exitDx=0;exitDy=0;entryX=0.5;entryY=0;entryDx=0;entryDy=0;" edge="1" parent="WIyWlLk6GJQsqaUBKTNV-1" source="sTN9fzjTIB2lLVRXi-as-3" target="sTN9fzjTIB2lLVRXi-as-5">
          <mxGeometry relative="1" as="geometry" />
        </mxCell>
        <mxCell id="sTN9fzjTIB2lLVRXi-as-3" value="读取图像数据" style="shape=parallelogram;perimeter=parallelogramPerimeter;whiteSpace=wrap;html=1;fixedSize=1;" vertex="1" parent="WIyWlLk6GJQsqaUBKTNV-1">
          <mxGeometry x="283.81" y="120" width="115" height="40" as="geometry" />
        </mxCell>
        <mxCell id="sTN9fzjTIB2lLVRXi-as-4" style="edgeStyle=orthogonalEdgeStyle;rounded=0;orthogonalLoop=1;jettySize=auto;html=1;exitX=0.5;exitY=1;exitDx=0;exitDy=0;entryX=0.5;entryY=0;entryDx=0;entryDy=0;" edge="1" parent="WIyWlLk6GJQsqaUBKTNV-1" source="sTN9fzjTIB2lLVRXi-as-5" target="sTN9fzjTIB2lLVRXi-as-7">
          <mxGeometry relative="1" as="geometry" />
        </mxCell>
        <mxCell id="sTN9fzjTIB2lLVRXi-as-5" value="提取附加信息和Location Map" style="rounded=0;whiteSpace=wrap;html=1;" vertex="1" parent="WIyWlLk6GJQsqaUBKTNV-1">
          <mxGeometry x="287.56" y="180" width="107.5" height="40" as="geometry" />
        </mxCell>
        <mxCell id="sTN9fzjTIB2lLVRXi-as-6" style="edgeStyle=orthogonalEdgeStyle;rounded=0;orthogonalLoop=1;jettySize=auto;html=1;exitX=0.5;exitY=1;exitDx=0;exitDy=0;entryX=0.5;entryY=0;entryDx=0;entryDy=0;" edge="1" parent="WIyWlLk6GJQsqaUBKTNV-1" source="sTN9fzjTIB2lLVRXi-as-7">
          <mxGeometry relative="1" as="geometry">
            <mxPoint x="341.30999999999995" y="300" as="targetPoint" />
          </mxGeometry>
        </mxCell>
        <mxCell id="sTN9fzjTIB2lLVRXi-as-7" value="解析附加信息和Location Map" style="rounded=0;whiteSpace=wrap;html=1;" vertex="1" parent="WIyWlLk6GJQsqaUBKTNV-1">
          <mxGeometry x="282.56" y="240" width="121.25" height="40" as="geometry" />
        </mxCell>
        <mxCell id="sTN9fzjTIB2lLVRXi-as-8" style="edgeStyle=orthogonalEdgeStyle;rounded=0;orthogonalLoop=1;jettySize=auto;html=1;exitX=0.5;exitY=1;exitDx=0;exitDy=0;entryX=0.5;entryY=0;entryDx=0;entryDy=0;" edge="1" parent="WIyWlLk6GJQsqaUBKTNV-1" source="sTN9fzjTIB2lLVRXi-as-9">
          <mxGeometry relative="1" as="geometry">
            <mxPoint x="341.31500000000005" y="360.0000000000001" as="targetPoint" />
          </mxGeometry>
        </mxCell>
        <mxCell id="sTN9fzjTIB2lLVRXi-as-9" value="逆序提取秘密信息" style="rounded=0;whiteSpace=wrap;html=1;" vertex="1" parent="WIyWlLk6GJQsqaUBKTNV-1">
          <mxGeometry x="287.56" y="300" width="107.5" height="40" as="geometry" />
        </mxCell>
        <mxCell id="sTN9fzjTIB2lLVRXi-as-10" value="结束" style="rounded=1;whiteSpace=wrap;html=1;" vertex="1" parent="WIyWlLk6GJQsqaUBKTNV-1">
          <mxGeometry x="305.56" y="686" width="70" height="30" as="geometry" />
        </mxCell>
        <mxCell id="sTN9fzjTIB2lLVRXi-as-11" value="秘密信息恢复成功？" style="rhombus;whiteSpace=wrap;html=1;" vertex="1" parent="WIyWlLk6GJQsqaUBKTNV-1">
          <mxGeometry x="256.74" y="424" width="167.63" height="70" as="geometry" />
        </mxCell>
        <mxCell id="sTN9fzjTIB2lLVRXi-as-12" value="否" style="text;html=1;strokeColor=none;fillColor=none;align=center;verticalAlign=middle;whiteSpace=wrap;rounded=0;" vertex="1" parent="WIyWlLk6GJQsqaUBKTNV-1">
          <mxGeometry x="424.37" y="430" width="45.99" height="30" as="geometry" />
        </mxCell>
        <mxCell id="sTN9fzjTIB2lLVRXi-as-13" style="edgeStyle=orthogonalEdgeStyle;rounded=0;orthogonalLoop=1;jettySize=auto;html=1;exitX=0.5;exitY=1;exitDx=0;exitDy=0;entryX=0.5;entryY=0;entryDx=0;entryDy=0;fontFamily=Helvetica;" edge="1" parent="WIyWlLk6GJQsqaUBKTNV-1" target="sTN9fzjTIB2lLVRXi-as-10">
          <mxGeometry relative="1" as="geometry">
            <mxPoint x="340.55999999999995" y="650" as="sourcePoint" />
          </mxGeometry>
        </mxCell>
        <mxCell id="sTN9fzjTIB2lLVRXi-as-14" style="edgeStyle=orthogonalEdgeStyle;rounded=0;orthogonalLoop=1;jettySize=auto;html=1;entryX=0.5;entryY=0;entryDx=0;entryDy=0;" edge="1" parent="WIyWlLk6GJQsqaUBKTNV-1" source="sTN9fzjTIB2lLVRXi-as-15" target="sTN9fzjTIB2lLVRXi-as-11">
          <mxGeometry relative="1" as="geometry" />
        </mxCell>
        <mxCell id="sTN9fzjTIB2lLVRXi-as-15" value="恢复Location Map对应像素值" style="rounded=0;whiteSpace=wrap;html=1;" vertex="1" parent="WIyWlLk6GJQsqaUBKTNV-1">
          <mxGeometry x="286.81" y="360" width="107.5" height="40" as="geometry" />
        </mxCell>
        <mxCell id="sTN9fzjTIB2lLVRXi-as-16" style="edgeStyle=orthogonalEdgeStyle;rounded=0;orthogonalLoop=1;jettySize=auto;html=1;entryX=0.496;entryY=-0.007;entryDx=0;entryDy=0;entryPerimeter=0;" edge="1" parent="WIyWlLk6GJQsqaUBKTNV-1" source="sTN9fzjTIB2lLVRXi-as-17" target="sTN9fzjTIB2lLVRXi-as-18">
          <mxGeometry relative="1" as="geometry">
            <Array as="points" />
          </mxGeometry>
        </mxCell>
        <mxCell id="sTN9fzjTIB2lLVRXi-as-17" value="原始图像恢复成功？" style="rhombus;whiteSpace=wrap;html=1;" vertex="1" parent="WIyWlLk6GJQsqaUBKTNV-1">
          <mxGeometry x="256.74" y="514" width="167.63" height="70" as="geometry" />
        </mxCell>
        <mxCell id="sTN9fzjTIB2lLVRXi-as-18" value="信息提取成功" style="shape=parallelogram;perimeter=parallelogramPerimeter;whiteSpace=wrap;html=1;fixedSize=1;" vertex="1" parent="WIyWlLk6GJQsqaUBKTNV-1">
          <mxGeometry x="277.99" y="610" width="126.02" height="40" as="geometry" />
        </mxCell>
        <mxCell id="sTN9fzjTIB2lLVRXi-as-19" value="信息提取失败" style="shape=parallelogram;perimeter=parallelogramPerimeter;whiteSpace=wrap;html=1;fixedSize=1;" vertex="1" parent="WIyWlLk6GJQsqaUBKTNV-1">
          <mxGeometry x="416.98" y="610" width="126.02" height="40" as="geometry" />
        </mxCell>
        <mxCell id="sTN9fzjTIB2lLVRXi-as-20" value="" style="endArrow=classic;html=1;rounded=0;exitX=0.5;exitY=1;exitDx=0;exitDy=0;entryX=0.5;entryY=0;entryDx=0;entryDy=0;" edge="1" parent="WIyWlLk6GJQsqaUBKTNV-1" source="sTN9fzjTIB2lLVRXi-as-11" target="sTN9fzjTIB2lLVRXi-as-17">
          <mxGeometry width="50" height="50" relative="1" as="geometry">
            <mxPoint x="320" y="530" as="sourcePoint" />
            <mxPoint x="370" y="480" as="targetPoint" />
          </mxGeometry>
        </mxCell>
        <mxCell id="sTN9fzjTIB2lLVRXi-as-21" value="" style="endArrow=none;html=1;rounded=0;exitX=1;exitY=0.5;exitDx=0;exitDy=0;" edge="1" parent="WIyWlLk6GJQsqaUBKTNV-1" source="sTN9fzjTIB2lLVRXi-as-11">
          <mxGeometry width="50" height="50" relative="1" as="geometry">
            <mxPoint x="430" y="470" as="sourcePoint" />
            <mxPoint x="480" y="460" as="targetPoint" />
          </mxGeometry>
        </mxCell>
        <mxCell id="sTN9fzjTIB2lLVRXi-as-22" value="" style="endArrow=classic;html=1;rounded=0;entryX=0.5;entryY=0;entryDx=0;entryDy=0;" edge="1" parent="WIyWlLk6GJQsqaUBKTNV-1" target="sTN9fzjTIB2lLVRXi-as-19">
          <mxGeometry width="50" height="50" relative="1" as="geometry">
            <mxPoint x="480" y="460" as="sourcePoint" />
            <mxPoint x="540" y="560" as="targetPoint" />
          </mxGeometry>
        </mxCell>
        <mxCell id="sTN9fzjTIB2lLVRXi-as-23" value="" style="endArrow=classic;html=1;rounded=0;exitX=1;exitY=0.5;exitDx=0;exitDy=0;" edge="1" parent="WIyWlLk6GJQsqaUBKTNV-1" source="sTN9fzjTIB2lLVRXi-as-17">
          <mxGeometry width="50" height="50" relative="1" as="geometry">
            <mxPoint x="470" y="580" as="sourcePoint" />
            <mxPoint x="480" y="549" as="targetPoint" />
          </mxGeometry>
        </mxCell>
        <mxCell id="sTN9fzjTIB2lLVRXi-as-24" value="" style="endArrow=none;html=1;rounded=0;entryX=0.5;entryY=1;entryDx=0;entryDy=0;" edge="1" parent="WIyWlLk6GJQsqaUBKTNV-1" target="sTN9fzjTIB2lLVRXi-as-19">
          <mxGeometry width="50" height="50" relative="1" as="geometry">
            <mxPoint x="480" y="670" as="sourcePoint" />
            <mxPoint x="440" y="700" as="targetPoint" />
          </mxGeometry>
        </mxCell>
        <mxCell id="sTN9fzjTIB2lLVRXi-as-25" value="" style="endArrow=classic;html=1;rounded=0;" edge="1" parent="WIyWlLk6GJQsqaUBKTNV-1">
          <mxGeometry width="50" height="50" relative="1" as="geometry">
            <mxPoint x="480" y="670" as="sourcePoint" />
            <mxPoint x="340" y="670" as="targetPoint" />
          </mxGeometry>
        </mxCell>
        <mxCell id="sTN9fzjTIB2lLVRXi-as-26" value="否" style="text;html=1;strokeColor=none;fillColor=none;align=center;verticalAlign=middle;whiteSpace=wrap;rounded=0;" vertex="1" parent="WIyWlLk6GJQsqaUBKTNV-1">
          <mxGeometry x="424.37" y="519" width="45.99" height="30" as="geometry" />
        </mxCell>
        <mxCell id="sTN9fzjTIB2lLVRXi-as-27" value="是" style="text;html=1;strokeColor=none;fillColor=none;align=center;verticalAlign=middle;whiteSpace=wrap;rounded=0;" vertex="1" parent="WIyWlLk6GJQsqaUBKTNV-1">
          <mxGeometry x="301.56" y="488" width="45.99" height="30" as="geometry" />
        </mxCell>
        <mxCell id="sTN9fzjTIB2lLVRXi-as-28" value="是" style="text;html=1;strokeColor=none;fillColor=none;align=center;verticalAlign=middle;whiteSpace=wrap;rounded=0;" vertex="1" parent="WIyWlLk6GJQsqaUBKTNV-1">
          <mxGeometry x="301.56" y="579" width="45.99" height="30" as="geometry" />
        </mxCell>
      </root>
    </mxGraphModel>
  </diagram>
</mxfile>
